<?xml version="1.0" encoding="UTF-8" standalone="no" ?>
<!DOCTYPE svg PUBLIC "-//W3C//DTD SVG 1.1//EN" "http://www.w3.org/Graphics/SVG/1.1/DTD/svg11.dtd">
<svg width="429.00000000000006" height="96.71516911027403" viewBox="0 0 369.66666666666663 83.3388675550069" class="looka-1j8o68f"><defs id="SvgjsDefs1177"></defs><g id="SvgjsG1178" featurekey="xG21Y3-0" transform="matrix(0.05555924503667127,0,0,0.05555924503667127,-0.4500299059912073,-0.42225025698015917)" fill="#4b88b9"><path xmlns="http://www.w3.org/2000/svg" d="M1423.2,552.6L963.1,92.5C908.3,37.7,835.5,7.6,758.1,7.6c-77.4,0-150.2,30.1-204.9,84.9L93,552.6  C38.3,607.4,8.1,680.2,8.1,757.6C8.1,835,38.3,907.7,93,962.5l460.1,460.2c54.7,54.7,127.5,84.9,204.9,84.9  c77.4,0,150.2-30.2,204.9-84.9l460.2-460.2c54.7-54.7,84.9-127.5,84.9-204.9C1508.1,680.2,1477.9,607.3,1423.2,552.6z M1381.1,920.4  L921,1380.6c-43.5,43.5-101.4,67.5-162.8,67.5c-61.5,0-119.3-24-162.8-67.5l-354.2-354.2h304.6l101.4,175.7h222l111-192.2  l-111-192.2h-222L545.7,993.2H208l-72.8-72.8c-43.5-43.5-67.5-101.3-67.5-162.8s24-119.3,67.5-162.8l460.1-460.1  c43.5-43.5,101.3-67.4,162.8-67.4s119.3,23.9,162.8,67.4l360.8,360.8H970.5L869.1,319.7h-222l-111,192.2l111,192.2h222l101.4-175.7  h344.3l66.3,66.3c43.5,43.5,67.5,101.3,67.5,162.8C1448.6,819.1,1424.6,876.9,1381.1,920.4z M604.9,1009.8l76.6-132.7h153.2  l76.6,132.7l-76.6,132.7H681.5L604.9,1009.8z M911.3,511.9l-76.6,132.7H681.5l-76.6-132.7l76.6-132.7h153.2L911.3,511.9z   M974.3,610.6l-73.9,128H615.8l-73.9-128H372.2l-84.9,147l84.9,147h169.7l73.9-128h284.6l73.9,128H1144l84.8-147l-84.8-147H974.3z"></path></g><g id="SvgjsG1179" featurekey="n48U4P-0" transform="matrix(3.320054079555205,0,0,3.320054079555205,102.00398393444596,-1.8539250421902835)" fill="#4b88b9"><path d="M1.78 16.48 l0 -5.32 l-1.48 0 l0 -0.82 l1.48 0 l0 -3.32 l2.18 -1.04 l0 4.36 l1.44 0 l0 0.82 l-1.44 0 l0 5.2 c0 0.78 0.3 1.46 0.68 1.96 c0.22 0.3 0.48 0.52 0.76 0.68 l0 1.1 c-0.46 -0.02 -0.94 -0.12 -1.44 -0.32 c-1.16 -0.48 -2.18 -1.46 -2.18 -3.3 z M14.260000000000002 20 l-0.54 -0.14 c-0.9 -0.24 -1.88 -0.24 -2.72 0.02 c-0.34 0.1 -0.66 0.12 -0.98 0.12 c-1.96 0 -3.52 -1.54 -3.52 -3.48 c0 -1.9 1.56 -3.46 3.52 -3.46 c0.78 0 1.48 0.24 2.02 0.62 l0 -0.02 s0.16 -2.44 -0.92 -2.74 c-1.12 -0.32 -1.52 0.34 -2.34 1.58 l-1.68 -0.02 c0.52 -1.32 1.54 -2.24 2.98 -2.24 c0.54 0 1.1 0.1 1.64 0.26 c0 0 2.54 0.78 2.54 3.16 l0 6.34 z M8.12 17.02 c0.46 1.5 1.6 2.56 2.76 2.3 c1.12 -0.26 1.64 -1.72 1.18 -3.28 c-0.44 -1.48 -1.74 -2.54 -2.86 -2.26 c-1.14 0.28 -1.54 1.72 -1.08 3.24 z M15.98 20 l0 -0.54 c0.56 -0.7 0.86 -1.66 0.86 -2.62 l0 -3.32 c0 -0.98 -0.3 -1.92 -0.86 -2.62 l0 -0.56 l2.76 0 l0 6.52 c0 0.94 0.32 1.9 0.9 2.6 l0 0.54 l-3.66 0 z M17.520000000000003 9.46 c-0.76 0 -1.38 -0.64 -1.38 -1.4 c0 -0.78 0.62 -1.4 1.38 -1.4 c0.78 0 1.4 0.62 1.4 1.4 c0 0.76 -0.62 1.4 -1.4 1.4 z M20.8 20 l0 -0.54 c0.6 -0.7 0.96 -1.66 0.96 -2.62 l0 -7.66 c0 -0.96 -0.36 -1.9 -0.94 -2.58 l0 -0.6 l2.94 0 l0 10.86 c0 0.94 0.36 1.9 0.98 2.6 l0 0.54 l-3.94 0 z M29.700000000000003 20 l-3 -7.72 c-0.08 -0.2 -0.16 -0.3 -0.28 -0.44 l-0.88 -0.94 l0 -0.56 l3.78 0 l0 0.56 l-0.26 0.56 c-0.18 0.38 -0.18 0.76 -0.04 1.14 l2.48 6.34 l1.96 -5.04 c0.46 -1.14 0.46 -2.4 0 -3.56 l2.2 0 l3.34 8.64 l2.58 -6.62 c0.18 -0.5 0.08 -1.06 -0.32 -1.4 l0 -0.62 l2.44 0 l0 0.62 l-0.78 0.5 c-0.24 0.16 -0.36 0.36 -0.46 0.62 l-3.06 7.92 l-2.2 0 l-2.66 -6.84 l-2.68 6.84 l-2.16 0 z M49.74 20 l0 -0.58 c0.66 -0.68 1.06 -1.62 1.06 -2.6 l0 -3.3 c0 -0.96 -0.36 -1.9 -1.04 -2.6 l0 -0.58 l2.72 0 c-0.16 -2.68 -2.84 -3.26 -4.34 -3.26 l-0.9 0 c0.2 0.26 0.32 0.58 0.32 0.92 c0 0.76 -0.62 1.36 -1.4 1.36 c-0.76 0 -1.4 -0.6 -1.4 -1.36 c0 -0.78 0.64 -1.44 1.4 -1.44 l1.54 0 c0.9 0 1.94 0.16 2.62 0.42 c1.2 0.46 2.66 1.54 2.66 3.36 l0 1.1 c0.62 -0.38 1.38 -0.62 2.16 -0.62 c2.32 0 3.62 1.46 3.62 4.88 l0 1.14 c0 0.96 0.38 1.9 1.02 2.58 l0 0.58 l-4.26 0 l0 -0.58 c0.68 -0.68 1.04 -1.62 1.04 -2.58 l0 -2.4 c0 -1.42 -1.1 -2.8 -2.34 -2.8 c-0.64 0 -1.24 0.44 -1.24 1.16 l0 4.04 c0 0.96 0.36 1.9 1.04 2.58 l0 0.58 l-4.28 0 z M44.620000000000005 20 l0 -0.58 c0.58 -0.68 0.92 -1.62 0.92 -2.58 l0 -3.32 c0 -0.96 -0.34 -1.9 -0.92 -2.62 l0 -0.56 l2.8 0 l0 6.5 c0 0.96 0.3 1.9 0.88 2.58 l0 0.58 l-3.68 0 z M69.3 11.3 l0 -2.08 c0 -0.98 -0.4 -1.92 -1.08 -2.64 l0 -0.58 l3.26 0 l0 14.02 c-0.64 -0.28 -1.3 -0.42 -1.96 -0.42 c-1.16 0 -2.14 0.62 -3.34 0.62 c-2.8 0 -5.46 -2.26 -5.46 -4.98 c0 -2.78 2.16 -5.04 5.46 -5.04 c1.18 0 2.24 0.44 3.12 1.1 z M67.02 19.7 c1.52 0 2.5 -1.52 2.5 -3.36 c0 -3.06 -2.24 -5.56 -4.16 -5.56 c-1.52 0 -2.36 1.44 -2.36 3.2 c0 0.6 0.1 1.26 0.32 1.94 c0.68 2.2 2.16 3.78 3.7 3.78 z M73.42 19.18 l0 -1.42 l0.66 0 l0.78 0.84 c0.52 0.56 1.14 0.78 2.02 0.76 c0.8 0 2.02 -0.3 2.02 -1.04 c0 -0.94 -1.82 -2.08 -2.9 -2.72 c-0.94 -0.54 -2.58 -1.48 -2.58 -2.62 c0 -2.18 2.54 -2.72 3.28 -2.72 c0.94 0 1.88 0.22 2.88 0.68 l0 1.38 l-0.72 0 l-0.58 -0.66 c-0.42 -0.48 -1.02 -0.8 -1.68 -0.78 c-0.6 0 -1.72 0.46 -1.72 1.16 c0 0.82 1.94 1.44 3.96 2.82 c1.22 0.82 1.78 1.84 1.78 2.76 c0 1.32 -1.12 2.44 -3.04 2.44 c-2.5 0 -4.16 -0.88 -4.16 -0.88 z"></path></g></svg>